<svg width="896" height="154" viewBox="0 0 896 154" fill="none" xmlns="http://www.w3.org/2000/svg">
<path d="M197.36 67.6913C179.735 67.6913 170.922 59.7536 170.922 43.8948C170.922 28.0277 179.735 20.0984 197.36 20.0984H250.242V35.9655H200.002C191.19 35.9655 186.78 38.6086 186.78 43.9032C186.78 49.1894 191.19 51.8409 200.002 51.8409H223.797C241.422 51.8409 250.234 59.7703 250.234 75.6374C250.234 91.5044 241.422 99.4338 223.797 99.4338H170.914V83.5667H221.154C229.966 83.5667 234.377 80.9236 234.377 75.629C234.377 70.3344 229.966 67.6913 221.154 67.6913H197.36Z" fill="#282929"/>
<path d="M329.559 20.093H345.425V72.9805C345.425 90.6068 336.612 99.4201 318.988 99.4201H292.55C274.926 99.4201 266.113 90.6068 266.113 72.9805V20.093H281.979V70.8126C281.979 79.309 286.206 83.5613 294.668 83.5613H316.828C325.324 83.5613 329.576 79.2923 329.576 70.7626V20.093H329.559Z" fill="#282929"/>
<path d="M415.013 20.093C432.637 20.093 441.45 28.0224 441.45 43.8895C441.45 52.7026 438.807 57.9889 433.513 59.7565C438.798 61.5242 441.45 66.8104 441.45 75.6236C441.45 91.4907 432.637 99.4201 415.013 99.4201H362.13V20.093H415.013ZM412.753 51.5353C419.74 51.5353 423.233 48.9172 423.233 43.6727C423.233 38.4281 418.864 35.81 410.135 35.81H376.078V51.527H412.753V51.5353ZM415.013 67.6943H377.995V83.5613H412.37C421.182 83.5613 425.592 80.9182 425.592 75.6236C425.592 70.329 422.066 67.6943 415.013 67.6943Z" fill="#282929"/>
<path d="M483.76 67.6947C466.135 67.6947 457.323 59.757 457.323 43.8983C457.323 28.0312 466.135 20.1018 483.76 20.1018H536.643V35.9689H486.403C477.59 35.9689 473.18 38.612 473.18 43.9066C473.18 49.1928 477.59 51.8443 486.403 51.8443H510.197C527.822 51.8443 536.634 59.7737 536.634 75.6408C536.634 91.5079 527.822 99.4372 510.197 99.4372H457.314V83.5702H507.554C516.367 83.5702 520.777 80.927 520.777 75.6324C520.777 70.3378 516.367 67.6947 507.554 67.6947H483.76Z" fill="#282929"/>
<path d="M570.919 99.4201H555.054V20.093H607.936C625.561 20.093 634.374 28.0224 634.374 43.8895C634.374 59.7565 625.561 67.6859 607.936 67.6859H570.919V99.4201ZM601.267 51.5353C609.996 51.5353 614.364 48.9172 614.364 43.6727C614.364 38.4281 609.996 35.81 601.267 35.81H567.209V51.527H601.267V51.5353Z" fill="#282929"/>
<path d="M652.605 83.5618L645.727 99.4289H628.436L662.86 20.1018H680.101L714.525 99.4289H697.284L690.406 83.5618H652.605ZM683.494 67.6947L671.489 40.0378L659.483 67.6947H683.494Z" fill="#282929"/>
<path d="M801.104 83.562V99.4291H748.221C730.596 99.4291 721.784 90.6159 721.784 72.9895V46.55C721.784 28.9236 730.596 20.1104 748.221 20.1104H801.104V35.9774H750.389C741.893 35.9774 737.641 40.2048 737.641 48.6678V70.83C737.641 79.3263 741.91 83.5787 750.439 83.5787H801.104V83.562Z" fill="#282929"/>
<path d="M831.988 83.5613H895.45V99.4284H816.131V20.093H895.45V35.9601H831.988V51.8272H895.45V67.6943H831.988V83.5613Z" fill="#282929"/>
<path d="M86.5787 45.7055H54.7557C53.3217 45.7055 52.1879 46.2475 51.3541 47.3398C50.5204 48.432 50.1036 49.7077 50.1036 51.1669C50.1036 52.5927 50.5037 53.8183 51.3041 54.8189C52.1045 55.8278 53.255 56.3281 54.7557 56.3281H73.506C78.5667 56.3281 82.5602 58.2208 85.5032 62.0062C88.1461 65.3997 89.4717 69.5937 89.4717 74.5881C89.4717 79.5492 88.1461 83.7432 85.5032 87.1701C82.5685 90.9555 78.5667 92.8482 73.506 92.8482H39.3819V80.1162H71.355C72.7223 80.1162 73.8061 79.5492 74.5898 78.4236C75.3735 77.298 75.7654 75.9972 75.7654 74.5297C75.7654 73.0623 75.3902 71.8116 74.6399 70.786C73.8895 69.7605 72.7974 69.2435 71.3634 69.2435H52.563C47.469 69.2435 43.4421 67.3675 40.4658 63.6238C37.7895 60.2636 36.4473 56.1113 36.4473 51.1502C36.4473 46.2642 37.7895 42.1202 40.4658 38.7267C43.4671 34.9496 47.5023 33.0569 52.563 33.0569H86.5953V45.7055H86.5787Z" fill="#282929"/>
<path d="M117.402 32.2984L114.643 33.7325C114.226 33.9493 114.076 34.4662 114.301 34.8748C120.012 45.2722 122.663 57.579 121.012 70.5778C117.677 96.8173 96.876 117.654 70.6473 121.014C32.0045 125.958 -0.602198 92.9401 5.07542 54.1771C8.76045 29.0216 28.5612 9.04387 53.6811 5.15006C63.0021 3.69926 71.9979 4.48303 80.2267 7.02609C80.2434 7.03443 80.2517 7.04278 80.2433 7.05945C80.1766 7.43466 80.1433 7.82655 80.1433 8.21844C80.1433 12.8126 84.5287 16.3813 89.3392 14.9555C91.5402 14.3051 93.2827 12.5625 93.933 10.3613C95.3587 5.55028 91.7904 1.16453 87.1966 1.16453C85.3457 1.16453 83.6616 1.88161 82.4027 3.05726C82.3944 3.06559 82.386 3.06558 82.3777 3.06558C73.4402 0.163977 63.6274 -0.803211 53.4477 0.705954C26.2018 4.74151 4.64187 26.3367 0.681711 53.5934C-5.42944 95.7 30.4371 131.478 72.5565 125.225C99.6773 121.197 121.146 99.7355 125.197 72.6206C127.382 57.9875 124.497 44.1132 118.036 32.4901C117.902 32.2567 117.627 32.1817 117.402 32.2984Z" fill="#282929"/>
<path d="M740.972 117.481H733.835V153.125H769.485V145.996H740.972V117.481Z" fill="#606161"/>
<path d="M789.403 117.488L773.929 153.141H781.699L784.792 146.012H801.783L804.876 153.141H812.622L797.148 117.488H789.403ZM787.877 138.875L793.271 126.443L798.665 138.875H787.877Z" fill="#606161"/>
<path d="M852.664 128.177C852.664 121.048 848.704 117.479 840.783 117.479H817.022V153.132H840.783C848.704 153.132 852.664 149.563 852.664 142.434C852.664 138.474 851.472 136.098 849.096 135.306C851.472 134.513 852.664 132.137 852.664 128.177ZM839.591 146.003H824.142V138.874H840.775C843.943 138.874 845.527 140.066 845.527 142.443C845.527 144.819 843.551 146.003 839.591 146.003ZM840.775 131.745H824.142V124.616H839.591C843.551 124.616 845.536 125.8 845.536 128.185C845.527 130.553 843.952 131.745 840.775 131.745Z" fill="#606161"/>
<path d="M872.865 124.617H895.442V117.488H871.681C863.761 117.488 859.801 121.048 859.801 128.185C859.801 135.314 863.761 138.875 871.681 138.875H882.378C886.338 138.875 888.322 140.067 888.322 142.443C888.322 144.82 886.346 146.012 882.378 146.012H859.801V153.141H883.562C891.482 153.141 895.442 149.572 895.442 142.443C895.442 135.314 891.482 131.754 883.562 131.754H872.865C868.905 131.754 866.921 130.562 866.921 128.185C866.921 125.801 868.897 124.617 872.865 124.617Z" fill="#606161"/>
</svg>
