<svg width="810" height="139" viewBox="0 0 810 139" fill="none" xmlns="http://www.w3.org/2000/svg">
<path d="M178.836 61.7753C162.915 61.7753 154.954 54.6047 154.954 40.2785C154.954 25.9448 162.915 18.7817 178.836 18.7817H226.608V33.1154H181.223C173.263 33.1154 169.279 35.5032 169.279 40.2861C169.279 45.0615 173.263 47.4567 181.223 47.4567H202.718C218.64 47.4567 226.6 54.6197 226.6 68.9534C226.6 83.2871 218.64 90.4502 202.718 90.4502H154.946V76.1165H200.331C208.291 76.1165 212.276 73.7288 212.276 68.9459C212.276 64.1705 208.291 61.7753 200.331 61.7753H178.836Z" fill="#FAFAFA"/>
<path d="M298.261 18.7754H312.594V66.5517C312.594 82.4746 304.633 90.436 288.712 90.436H264.829C248.908 90.436 240.947 82.4746 240.947 66.5517V18.7754H255.28V64.5934C255.28 72.2686 259.098 76.1099 266.742 76.1099H286.761C294.435 76.1099 298.276 72.2535 298.276 64.5481V18.7754H298.261Z" fill="#FAFAFA"/>
<path d="M375.459 18.7754C391.381 18.7754 399.341 25.9385 399.341 40.2721C399.341 48.2336 396.954 53.0089 392.172 54.6058C396.946 56.2026 399.341 60.9779 399.341 68.9393C399.341 83.273 391.381 90.436 375.459 90.436H327.688V18.7754H375.459ZM373.418 47.1791C379.73 47.1791 382.885 44.814 382.885 40.0763C382.885 35.3461 378.939 32.9734 371.053 32.9734H340.288V47.1716H373.418V47.1791ZM375.459 61.7764H342.02V76.1099H373.072C381.033 76.1099 385.017 73.7222 385.017 68.9393C385.017 64.164 381.831 61.7764 375.459 61.7764Z" fill="#FAFAFA"/>
<path d="M437.563 61.7763C421.641 61.7763 413.68 54.6057 413.68 40.2795C413.68 25.9458 421.641 18.7827 437.563 18.7827H485.334V33.1164H439.95C431.989 33.1164 428.005 35.5041 428.005 40.287C428.005 45.0624 431.989 47.4577 439.95 47.4577H461.445C477.366 47.4577 485.327 54.6207 485.327 68.9544C485.327 83.2881 477.366 90.4512 461.445 90.4512H413.673V76.1175H459.057C467.018 76.1175 471.002 73.7298 471.002 68.9468C471.002 64.1715 467.018 61.7763 459.057 61.7763H437.563Z" fill="#FAFAFA"/>
<path d="M516.297 90.436H501.965V18.7754H549.737C565.658 18.7754 573.619 25.9385 573.619 40.2721C573.619 54.6057 565.658 61.7688 549.737 61.7688H516.297V90.436ZM543.712 47.1791C551.597 47.1791 555.543 44.814 555.543 40.0763C555.543 35.3461 551.597 32.9734 543.712 32.9734H512.946V47.1716H543.712V47.1791Z" fill="#FAFAFA"/>
<path d="M590.091 76.1097L583.877 90.4434H568.257L599.354 18.7827H614.929L646.026 90.4434H630.451L624.238 76.1097H590.091ZM617.994 61.7761L607.149 36.792L596.304 61.7761H617.994Z" fill="#FAFAFA"/>
<path d="M724.231 76.1101V90.4437H676.459C660.538 90.4437 652.577 82.4823 652.577 66.5594V42.6749C652.577 26.752 660.538 18.7905 676.459 18.7905H724.231V33.1242H678.417C670.743 33.1242 666.902 36.943 666.902 44.5881V64.6085C666.902 72.2837 670.758 76.1251 678.463 76.1251H724.231V76.1101Z" fill="#FAFAFA"/>
<path d="M752.128 76.1097H809.458V90.4434H737.804V18.7827H809.458V33.1164H752.128V47.45H809.458V61.7836H752.128V76.1097Z" fill="#FAFAFA"/>
<path d="M669.914 106.757H663.467V138.957H695.672V132.517H669.914V106.757Z" fill="#FAFAFA"/>
<path d="M713.664 106.758L699.686 138.965H706.705L709.499 132.525H724.848L727.642 138.965H734.639L720.661 106.758H713.664ZM712.286 126.078L717.159 114.847L722.031 126.078H712.286Z" fill="#FAFAFA"/>
<path d="M770.813 116.414C770.813 109.974 767.236 106.75 760.081 106.75H738.616V138.958H760.081C767.236 138.958 770.813 135.734 770.813 129.294C770.813 125.716 769.736 123.57 767.59 122.854C769.736 122.139 770.813 119.992 770.813 116.414ZM759.004 132.518H745.048V126.078H760.073C762.935 126.078 764.366 127.155 764.366 129.302C764.366 131.448 762.581 132.518 759.004 132.518ZM760.073 119.638H745.048V113.198H759.004C762.581 113.198 764.374 114.268 764.374 116.422C764.366 118.561 762.943 119.638 760.073 119.638Z" fill="#FAFAFA"/>
<path d="M789.062 113.198H809.457V106.758H787.992C780.837 106.758 777.26 109.974 777.26 116.421C777.26 122.861 780.837 126.078 787.992 126.078H797.655C801.232 126.078 803.025 127.155 803.025 129.301C803.025 131.448 801.24 132.525 797.655 132.525H777.26V138.965H798.724C805.879 138.965 809.457 135.741 809.457 129.301C809.457 122.861 805.879 119.645 798.724 119.645H789.062C785.484 119.645 783.692 118.568 783.692 116.421C783.692 114.267 785.477 113.198 789.062 113.198Z" fill="#FAFAFA"/>
<path d="M78.765 41.9144H50.0175C48.7221 41.9144 47.6979 42.4041 46.9447 43.3908C46.1916 44.3775 45.815 45.5299 45.815 46.848C45.815 48.136 46.1765 49.2432 46.8995 50.1471C47.6225 51.0584 48.6619 51.5104 50.0175 51.5104H66.9557C71.5273 51.5104 75.1349 53.2202 77.7934 56.6397C80.1809 59.7053 81.3784 63.4939 81.3784 68.0056C81.3784 72.4873 80.1809 76.276 77.7934 79.3717C75.1424 82.7912 71.5273 84.501 66.9557 84.501H36.1296V72.9994H65.0126C66.2478 72.9994 67.2269 72.4873 67.9348 71.4705C68.6428 70.4537 68.9967 69.2786 68.9967 67.953C68.9967 66.6273 68.6578 65.4975 67.98 64.5711C67.3022 63.6446 66.3156 63.1776 65.0202 63.1776H48.0368C43.4351 63.1776 39.7974 61.4829 37.1086 58.101C34.6911 55.0656 33.4785 51.3145 33.4785 46.8329C33.4785 42.4191 34.6911 38.6756 37.1086 35.6101C39.82 32.198 43.4652 30.4883 48.0368 30.4883H78.7801V41.9144H78.765Z" fill="#FAFAFA"/>
<path d="M106.609 29.8024L104.116 31.0979C103.739 31.2937 103.604 31.7607 103.807 32.1298C108.966 41.5224 111.361 52.6398 109.87 64.3824C106.857 88.086 88.0662 106.909 64.3724 109.944C29.4642 114.411 0.00873572 84.5835 5.13764 49.5667C8.46653 26.8423 26.3537 8.79538 49.0459 5.27788C57.466 3.96729 65.5925 4.67531 73.026 6.9726C73.041 6.98014 73.0485 6.98761 73.041 7.00267C72.9808 7.34161 72.9506 7.69564 72.9506 8.04964C72.9506 12.1998 76.9122 15.4236 81.2578 14.1357C83.2461 13.5482 84.8202 11.9739 85.4077 9.98545C86.6955 5.63942 83.4721 1.6775 79.3223 1.6775C77.6503 1.6775 76.1289 2.32528 74.9917 3.38731C74.9841 3.39484 74.9766 3.39485 74.9691 3.39485C66.8954 0.773671 58.0309 -0.100114 48.835 1.2632C24.2223 4.90874 4.74599 24.417 1.16856 49.0395C-4.35198 87.0767 28.0483 119.397 66.0971 113.748C90.5968 110.11 109.99 90.7222 113.651 66.2277C115.624 53.0089 113.018 40.4754 107.181 29.9756C107.061 29.7647 106.812 29.697 106.609 29.8024Z" fill="#FAFAFA"/>
</svg>
