<svg width="53" height="50" viewBox="0 0 53 50" fill="none" xmlns="http://www.w3.org/2000/svg">
<g clip-path="url(#clip0_5907_44233)">
<path d="M51.087 11.9565H1.08698V20.6522H51.087V11.9565Z" stroke="#562B8E" stroke-width="2" stroke-miterlimit="10"/>
<path d="M46.7392 20.6521L45.1848 40.8803C45.0174 43.0698 44.0279 45.1148 42.4149 46.6048C40.8019 48.0948 38.685 48.9194 36.4892 48.913H15.6631C13.4673 48.9194 11.3503 48.0948 9.73734 46.6048C8.12438 45.1148 7.13486 43.0698 6.96744 40.8803L5.40222 20.6521" stroke="#562B8E" stroke-width="2" stroke-miterlimit="10"/>
<path d="M26.087 11.9565V48.9131" stroke="#562B8E" stroke-width="2" stroke-miterlimit="10"/>
<path d="M15.2174 11.9565C13.776 11.9565 12.3937 11.3839 11.3744 10.3647C10.3552 9.34544 9.78265 7.96309 9.78265 6.5217C9.78265 5.0803 10.3552 3.69796 11.3744 2.67874C12.3937 1.65952 13.776 1.08691 15.2174 1.08691C18.2283 1.08691 20.0218 2.17387 22.0109 5.163C22.7827 6.31517 26.087 11.9565 26.087 11.9565" stroke="#562B8E" stroke-width="2" stroke-miterlimit="10"/>
<path d="M36.9565 11.9565C38.3979 11.9565 39.7803 11.3839 40.7995 10.3647C41.8187 9.34544 42.3913 7.96309 42.3913 6.5217C42.3913 5.0803 41.8187 3.69796 40.7995 2.67874C39.7803 1.65952 38.3979 1.08691 36.9565 1.08691C33.9565 1.08691 32.1631 2.17387 30.1631 5.163C29.4022 6.31517 26.087 11.9565 26.087 11.9565" stroke="#562B8E" stroke-width="2" stroke-miterlimit="10"/>
</g>
<defs>
<clipPath id="clip0_5907_44233">
<rect width="52.1739" height="50" fill="white"/>
</clipPath>
</defs>
</svg>
