<svg width="54" height="50" viewBox="0 0 54 50" fill="none" xmlns="http://www.w3.org/2000/svg">
<path d="M12.4396 29.7801L22.9011 11.6262C24.2679 9.24088 26.0923 7.149 28.2696 5.47053C30.447 3.79207 32.9344 2.56003 35.589 1.84531C38.2437 1.1306 41.0134 0.94724 43.7391 1.30565C46.4648 1.66407 49.0929 2.55723 51.4725 3.93392L45.978 12.6593H37.1868L43.7802 17.2306L41.055 22.0218C39.6937 24.4185 37.8714 26.522 35.6931 28.2109C33.5148 29.8998 31.0236 31.1406 28.3634 31.8619C25.7031 32.5831 22.9264 32.7705 20.1933 32.4132C17.4603 32.0559 14.825 31.161 12.4396 29.7801V29.7801Z" stroke="#562B8E" stroke-width="2" stroke-miterlimit="10"/>
<path d="M12.4396 29.7361L0.945068 49.4504" stroke="#562B8E" stroke-width="2" stroke-miterlimit="10"/>
</svg>
