<?xml version="1.0" encoding="UTF-8"?>
<svg version="1.1" xmlns="http://www.w3.org/2000/svg" width="500" height="500">
<path d="M0 0 C3.58500407 0.00477537 7.16995674 -0.00781639 10.75494373 -0.01801741 C17.75941669 -0.03512644 24.76379964 -0.03606188 31.76828805 -0.03080451 C37.46763219 -0.02674653 43.16694994 -0.02822559 48.86629283 -0.03355277 C50.08770918 -0.0346754 50.08770918 -0.0346754 51.33380061 -0.03582071 C52.98854644 -0.03735235 54.64329227 -0.0388907 56.29803809 -0.04043568 C71.78147532 -0.05413232 87.2648619 -0.04874318 102.74829795 -0.03725047 C116.87752793 -0.02732256 131.00662687 -0.04025616 145.13583664 -0.06418466 C159.68419167 -0.08863517 174.23248582 -0.09816886 188.78086096 -0.09153193 C196.93244552 -0.08805271 205.08392941 -0.09018542 213.23549831 -0.10778296 C220.1750854 -0.12257973 227.11450094 -0.12304371 234.05408493 -0.10571205 C237.58656632 -0.09726034 241.11874224 -0.0949072 244.65120685 -0.1103636 C281.33196798 -0.23733107 312.15505445 9.27390457 338.74815357 35.21933305 C352.80166912 49.45982869 363.60611064 67.98160386 368.49815357 87.40683305 C368.74452092 88.29165707 368.99088827 89.17648109 369.24472129 90.08811796 C372.33723858 102.88946175 371.93444241 115.80977348 371.90498662 128.90867949 C371.90021125 132.49368356 371.91280301 136.07863622 371.92300403 139.66362321 C371.94011306 146.66809618 371.9410485 153.67247912 371.93579113 160.67696754 C371.93173315 166.37631168 371.93321221 172.07562942 371.93853939 177.77497232 C371.93928781 178.58924989 371.94003623 179.40352745 371.94080733 180.2424801 C371.94233897 181.89722593 371.94387732 183.55197175 371.9454223 185.20671757 C371.95911894 200.69015481 371.9537298 216.17354138 371.94223709 231.65697744 C371.93230918 245.78620741 371.94524278 259.91530635 371.96917128 274.04451612 C371.99362179 288.59287115 372.00315548 303.1411653 371.99651855 317.68954045 C371.99303933 325.841125 371.99517204 333.9926089 372.01276958 342.14417779 C372.02756635 349.08376489 372.02803033 356.02318042 372.01069867 362.96276442 C372.00224696 366.4952458 371.99989382 370.02742172 372.01535022 373.55988634 C372.14231769 410.24064746 362.63108205 441.06373393 336.68565357 467.65683305 C322.44515793 481.71034861 303.92338276 492.51479012 284.49815357 497.40683305 C283.61332955 497.6532004 282.72850553 497.89956775 281.81686866 498.15340078 C269.01552487 501.24591806 256.09521314 500.8431219 242.99630713 500.81366611 C239.41130306 500.80889074 235.8263504 500.82148249 232.24136341 500.83168352 C225.23689044 500.84879255 218.2325075 500.84972799 211.22801908 500.84447061 C205.52867494 500.84041263 199.8293572 500.84189169 194.1300143 500.84721887 C193.31573673 500.84796729 192.50145917 500.84871572 191.66250652 500.84948682 C190.00776069 500.85101846 188.35301487 500.8525568 186.69826905 500.85410178 C171.21483181 500.86779843 155.73144524 500.86240929 140.24800918 500.85091657 C126.11877921 500.84098866 111.98968027 500.85392226 97.8604705 500.87785076 C83.31211547 500.90230127 68.76382132 500.91183496 54.21544617 500.90519804 C46.06386162 500.90171881 37.91237772 500.90385153 29.76080883 500.92144907 C22.82122173 500.93624583 15.8818062 500.93670982 8.9422222 500.91937815 C5.40974082 500.91092645 1.8775649 500.90857331 -1.65489972 500.92402971 C-38.33566084 501.05099718 -69.15874731 491.53976153 -95.75184643 465.59433305 C-109.80536199 451.35383741 -120.6098035 432.83206224 -125.50184643 413.40683305 C-125.74821378 412.52200903 -125.99458113 411.63718502 -126.24841416 410.72554815 C-129.34093144 397.92420435 -128.93813528 385.00389263 -128.90867949 371.90498662 C-128.90390412 368.31998255 -128.91649587 364.73502988 -128.9266969 361.15004289 C-128.94380593 354.14556993 -128.94474137 347.14118698 -128.93948399 340.13669857 C-128.93542601 334.43735443 -128.93690507 328.73803668 -128.94223225 323.03869379 C-128.94298067 322.22441622 -128.9437291 321.41013865 -128.9445002 320.57118601 C-128.94603184 318.91644018 -128.94757018 317.26169435 -128.94911516 315.60694853 C-128.96281181 300.1235113 -128.95742267 284.64012472 -128.94592995 269.15668867 C-128.93600204 255.02745869 -128.94893564 240.89835975 -128.97286414 226.76914998 C-128.99731465 212.22079495 -129.00684834 197.6725008 -129.00021142 183.12412566 C-128.99673219 174.9725411 -128.99886491 166.82105721 -129.01646245 158.66948831 C-129.03125921 151.72990122 -129.0317232 144.79048568 -129.01439153 137.85090169 C-129.00593983 134.3184203 -129.00358669 130.78624438 -129.01904309 127.25377977 C-129.14601056 90.57301864 -119.63477491 59.74993217 -93.68934643 33.15683305 C-79.44885079 19.1033175 -60.92707562 8.29887598 -41.50184643 3.40683305 C-40.61702241 3.1604657 -39.7321984 2.91409835 -38.82056153 2.66026533 C-26.01921773 -0.43225196 -13.09890601 -0.02945579 0 0 Z " fill="#5870B3" transform="translate(128.50184643268585,-0.40683305263519287)"/>
<path d="M0 0 C1.11358625 -0.00679667 1.11358625 -0.00679667 2.24966919 -0.01373065 C4.7384596 -0.02639564 7.22703176 -0.02475294 9.71585083 -0.02310181 C11.49978924 -0.02908574 13.28372507 -0.03589097 15.06765747 -0.04345703 C19.91479015 -0.06113774 24.76185223 -0.06581328 29.60901403 -0.0670886 C33.65477118 -0.06898717 37.70051186 -0.07634421 41.74626267 -0.08343279 C51.29114689 -0.09972213 60.83599337 -0.10460124 70.38088989 -0.10317993 C80.22843893 -0.10197825 90.07576889 -0.12308407 99.92326248 -0.15466726 C108.37688061 -0.18081426 116.83042712 -0.19154789 125.28408539 -0.19026911 C130.33352044 -0.18975903 135.38276082 -0.19546799 140.43215561 -0.21662521 C145.18135878 -0.23598109 149.93018103 -0.23615024 154.67939758 -0.22159195 C156.42167339 -0.21949947 158.16397287 -0.22423084 159.90620804 -0.23631287 C162.28655294 -0.25174989 164.66558187 -0.24246859 167.04589844 -0.22705078 C167.7338455 -0.23733791 168.42179256 -0.24762503 169.1305865 -0.25822389 C174.05435333 -0.18784349 176.84212278 1.21646072 180.64993286 4.26742554 C182.68059767 7.18442798 182.91187242 9.59461633 182.95632935 13.10507202 C182.97231674 14.0638475 182.98830414 15.02262299 183.004776 16.01045227 C183.0101387 17.04271439 183.0155014 18.0749765 183.02102661 19.13851929 C183.03005508 20.21182999 183.03908356 21.28514069 183.04838562 22.39097595 C183.06289594 24.66641452 183.07177679 26.94189488 183.07546997 29.21737671 C183.08728299 32.66123324 183.13639201 36.10324844 183.18704224 39.54672241 C183.30760116 55.79115063 181.96464946 67.79159173 170.64993286 80.26742554 C170.16266724 80.8462146 169.67540161 81.42500366 169.17337036 82.02133179 C152.67516864 100.25395985 123.97947503 109.87066895 101.69656372 118.35189819 C98.27381391 119.88301018 96.30235497 121.96258132 94.64993286 125.26742554 C94.37315007 129.41916745 94.52897925 132.63150506 96.64993286 136.26742554 C98.93618036 137.32741638 98.93618036 137.32741638 101.64993286 138.26742554 C131.47233697 150.12129011 131.47233697 150.12129011 144.64993286 157.26742554 C145.7314563 157.85008179 146.81297974 158.43273804 147.92727661 159.03305054 C154.71946946 162.83599332 160.78194614 167.15593884 166.64993286 172.26742554 C167.28672974 172.80883179 167.92352661 173.35023804 168.57962036 173.90805054 C176.02398131 180.72377656 182.03707562 190.58294123 182.85038757 200.78088379 C182.94666749 203.74802746 182.97950947 206.70887506 182.98587036 209.67758179 C182.99585556 211.30608315 182.99585556 211.30608315 183.00604248 212.96748352 C183.01613397 215.25437737 183.02086059 217.54130046 183.02053833 219.82821655 C183.02492306 223.32211624 183.06131306 226.81476364 183.09915161 230.30844116 C183.10501819 232.5356504 183.10898865 234.76286561 183.11087036 236.99008179 C183.12524139 238.03084366 183.13961243 239.07160553 183.15441895 240.14390564 C183.11764956 245.98798134 182.78516677 249.76175685 178.64993286 254.26742554 C175.07237216 256.68424034 171.46948181 256.55350213 167.29986572 256.53485107 C166.18627947 256.54164774 166.18627947 256.54164774 165.05019653 256.54858172 C162.56140613 256.56124671 160.07283397 256.55960401 157.58401489 256.55795288 C155.80007648 256.56393681 154.01614066 256.57074205 152.23220825 256.57830811 C147.38507557 256.59598881 142.53801349 256.60066435 137.69085169 256.60193968 C133.64509454 256.60383825 129.59935386 256.61119528 125.55360305 256.61828387 C116.00871883 256.6345732 106.46387235 256.63945231 96.91897583 256.63803101 C87.07142679 256.63682933 77.22409684 256.65793515 67.37660325 256.68951833 C58.92298511 256.71566533 50.4694386 256.72639897 42.01578033 256.72512019 C36.96634528 256.7246101 31.91710491 256.73031906 26.86771011 256.75147629 C22.11850695 256.77083217 17.36968469 256.77100131 12.62046814 256.75644302 C10.87819233 256.75435055 9.13589285 256.75908191 7.39365768 256.77116394 C5.01331278 256.78660097 2.63428385 256.77731967 0.25396729 256.76190186 C-0.43397978 256.77218898 -1.12192684 256.78247611 -1.83072078 256.79307497 C-6.75452418 256.72269404 -9.54198778 255.31799236 -13.35006714 252.26742554 C-15.40729306 249.32247875 -15.61262825 246.8691059 -15.65646362 243.32211304 C-15.67245102 242.34008911 -15.68843842 241.35806519 -15.70491028 240.34628296 C-15.71027298 239.28901001 -15.71563568 238.23173706 -15.72116089 237.14242554 C-15.7347036 235.49560791 -15.7347036 235.49560791 -15.7485199 233.81552124 C-15.76302989 231.48880743 -15.77191098 229.16205275 -15.77560425 226.83529663 C-15.78743094 223.30804588 -15.83655265 219.78258476 -15.88717651 216.25570679 C-15.89664941 213.98878818 -15.90388029 211.72185889 -15.90866089 209.45492554 C-15.92819321 208.41384644 -15.94772552 207.37276733 -15.96784973 206.30014038 C-15.90051839 195.14154574 -11.72093826 185.56987017 -4.35006714 177.26742554 C-3.67588745 176.48883179 -3.00170776 175.71023804 -2.30709839 174.90805054 C15.9708197 155.19116738 45.73474095 144.57248951 70.64993286 136.26742554 C73.32333541 130.6532802 72.56801069 126.02165901 70.64993286 120.26742554 C67.89276701 119.15516476 67.89276701 119.15516476 64.64993286 118.26742554 C50.47792941 112.85141766 36.44774525 106.97911248 22.96243286 100.01742554 C22.0627478 99.55932495 21.16306274 99.10122437 20.2361145 98.62924194 C5.87147271 91.01291745 -7.49534703 79.73496313 -13.35006714 64.26742554 C-15.28818604 57.81663127 -15.67090437 51.91277106 -15.68600464 45.19711304 C-15.69266144 44.1572525 -15.69931824 43.11739197 -15.70617676 42.04602051 C-15.71625494 39.85926064 -15.72099528 37.67247032 -15.72067261 35.48568726 C-15.72506311 32.14549425 -15.76148242 28.80660555 -15.79928589 25.46664429 C-15.80515163 23.33513836 -15.80912264 21.2036262 -15.81100464 19.07211304 C-15.82537567 18.07823578 -15.8397467 17.08435852 -15.85455322 16.06036377 C-15.81677531 10.32164607 -15.37654108 6.70814213 -11.35006714 2.26742554 C-7.77478833 -0.15177826 -4.16861224 -0.01864657 0 0 Z " fill="#EDEDF2" transform="translate(166.35006713867188,121.73257446289063)"/>
</svg>