<svg id="svg" xmlns="http://www.w3.org/2000/svg" xmlns:xlink="http://www.w3.org/1999/xlink" width="400" height="400" viewBox="0, 0, 400,400"><g id="svgg"><path id="path0" d="M299.642 27.766 C 285.658 41.749,133.698 61.803,59.444 59.464 L 24.444 58.361 24.444 110.923 L 24.444 163.485 36.667 175.556 C 51.828 190.528,52.247 188.534,31.111 201.953 L 13.333 213.240 13.333 255.934 L 13.333 298.628 51.056 336.536 L 88.778 374.444 139.389 375.218 C 227.801 376.570,299.993 367.187,369.072 345.365 L 386.667 339.807 386.667 288.296 L 386.667 236.786 372.852 222.847 L 359.037 208.908 369.518 198.267 L 380.000 187.625 380.000 144.344 L 380.000 101.062 342.754 63.864 C 308.317 29.472,302.667 24.741,299.642 27.766 M351.111 160.343 L 351.111 180.687 333.889 196.613 C 305.351 223.003,280.171 244.820,255.436 264.589 C 242.538 274.898,228.038 286.629,223.214 290.656 L 214.444 297.979 234.444 296.620 C 258.518 294.985,297.232 288.585,328.511 281.070 C 360.415 273.406,357.778 271.915,357.778 297.620 L 357.778 319.685 345.000 323.400 C 297.743 337.140,242.425 344.446,173.889 346.000 L 117.778 347.272 117.778 326.013 L 117.778 304.754 152.778 280.875 C 187.913 256.903,234.530 222.691,248.705 210.473 L 256.298 203.928 247.593 205.308 C 233.741 207.502,174.252 211.039,150.556 211.077 L 128.889 211.111 128.889 188.131 L 128.889 165.150 173.889 163.719 C 235.717 161.753,302.372 153.041,336.667 142.442 C 351.103 137.981,351.111 137.990,351.111 160.343 " stroke="none" fill="#000000" fill-rule="evenodd"></path></g></svg>