<?xml version="1.0" encoding="UTF-8"?>
<svg xmlns="http://www.w3.org/2000/svg" xmlns:xlink="http://www.w3.org/1999/xlink" width="853.69pt" height="152.27pt" viewBox="0 0 853.69 152.27" version="1.1">
<defs>
<clipPath id="clip1">
  <path d="M 778 18 L 853.691406 18 L 853.691406 94 L 778 94 Z M 778 18 "/>
</clipPath>
<clipPath id="clip2">
  <path d="M 563 117 L 599 117 L 599 152.269531 L 563 152.269531 Z M 563 117 "/>
</clipPath>
<clipPath id="clip3">
  <path d="M 605 117 L 640 117 L 640 152.269531 L 605 152.269531 Z M 605 117 "/>
</clipPath>
<clipPath id="clip4">
  <path d="M 646 117 L 682 117 L 682 152.269531 L 646 152.269531 Z M 646 117 "/>
</clipPath>
<clipPath id="clip5">
  <path d="M 684 117 L 733 117 L 733 152.269531 L 684 152.269531 Z M 684 117 "/>
</clipPath>
<clipPath id="clip6">
  <path d="M 736 117 L 771 117 L 771 152.269531 L 736 152.269531 Z M 736 117 "/>
</clipPath>
<clipPath id="clip7">
  <path d="M 777 117 L 815 117 L 815 152.269531 L 777 152.269531 Z M 777 117 "/>
</clipPath>
<clipPath id="clip8">
  <path d="M 819 117 L 853.691406 117 L 853.691406 152.269531 L 819 152.269531 Z M 819 117 "/>
</clipPath>
</defs>
<g id="surface1">
<path style=" stroke:none;fill-rule:nonzero;fill:rgb(15.696716%,16.088867%,16.088867%);fill-opacity:1;" d="M 188.15625 63.542969 C 171.351563 63.542969 162.949219 55.980469 162.949219 40.855469 C 162.949219 25.730469 171.351563 18.167969 188.15625 18.167969 L 238.574219 18.167969 L 238.574219 33.292969 L 190.679688 33.292969 C 182.273438 33.292969 178.074219 35.8125 178.074219 40.855469 C 178.074219 45.898438 182.273438 48.417969 190.679688 48.417969 L 213.367188 48.417969 C 230.171875 48.417969 238.574219 55.980469 238.574219 71.105469 C 238.574219 86.230469 230.171875 93.792969 213.367188 93.792969 L 162.949219 93.792969 L 162.949219 78.667969 L 210.84375 78.667969 C 219.246094 78.667969 223.449219 76.148438 223.449219 71.105469 C 223.449219 66.0625 219.246094 63.542969 210.84375 63.542969 "/>
<path style=" stroke:none;fill-rule:nonzero;fill:rgb(15.696716%,16.088867%,16.088867%);fill-opacity:1;" d="M 314.199219 18.167969 L 329.324219 18.167969 L 329.324219 68.585938 C 329.324219 85.390625 320.917969 93.792969 304.113281 93.792969 L 278.90625 93.792969 C 262.101563 93.792969 253.699219 85.390625 253.699219 68.585938 L 253.699219 18.167969 L 268.824219 18.167969 L 268.824219 66.515625 C 268.824219 74.617188 272.855469 78.667969 280.925781 78.667969 L 302.046875 78.667969 C 310.148438 78.667969 314.199219 74.601563 314.199219 66.46875 "/>
<path style=" stroke:none;fill-rule:nonzero;fill:rgb(15.696716%,16.088867%,16.088867%);fill-opacity:1;" d="M 395.671875 63.542969 L 360.378906 63.542969 L 360.378906 78.667969 L 393.148438 78.667969 C 401.550781 78.667969 405.753906 76.148438 405.753906 71.105469 C 405.753906 66.0625 402.394531 63.542969 395.671875 63.542969 M 393.511719 48.140625 C 400.171875 48.140625 403.503906 45.640625 403.503906 40.644531 C 403.503906 35.652344 399.339844 33.152344 391.015625 33.152344 L 358.546875 33.152344 L 358.546875 48.140625 Z M 395.671875 18.167969 C 412.476563 18.167969 420.878906 25.730469 420.878906 40.855469 C 420.878906 49.257813 418.359375 54.300781 413.316406 55.980469 C 418.359375 57.660156 420.878906 62.703125 420.878906 71.105469 C 420.878906 86.230469 412.476563 93.792969 395.671875 93.792969 L 345.253906 93.792969 L 345.253906 18.167969 "/>
<path style=" stroke:none;fill-rule:nonzero;fill:rgb(15.696716%,16.088867%,16.088867%);fill-opacity:1;" d="M 461.214844 63.542969 C 444.40625 63.542969 436.003906 55.980469 436.003906 40.855469 C 436.003906 25.730469 444.40625 18.167969 461.214844 18.167969 L 511.628906 18.167969 L 511.628906 33.292969 L 463.734375 33.292969 C 455.328125 33.292969 451.128906 35.8125 451.128906 40.855469 C 451.128906 45.898438 455.328125 48.417969 463.734375 48.417969 L 486.421875 48.417969 C 503.226563 48.417969 511.628906 55.980469 511.628906 71.105469 C 511.628906 86.230469 503.226563 93.792969 486.421875 93.792969 L 436.003906 93.792969 L 436.003906 78.667969 L 483.898438 78.667969 C 492.300781 78.667969 496.503906 76.148438 496.503906 71.105469 C 496.503906 66.0625 492.300781 63.542969 483.898438 63.542969 "/>
<path style=" stroke:none;fill-rule:nonzero;fill:rgb(15.696716%,16.088867%,16.088867%);fill-opacity:1;" d="M 573.234375 48.136719 C 581.558594 48.136719 585.722656 45.640625 585.722656 40.644531 C 585.722656 35.648438 581.558594 33.152344 573.234375 33.152344 L 540.765625 33.152344 L 540.765625 48.136719 Z M 544.300781 93.792969 L 529.179688 93.792969 L 529.179688 18.167969 L 579.59375 18.167969 C 596.398438 18.167969 604.800781 25.730469 604.800781 40.855469 C 604.800781 55.980469 596.398438 63.542969 579.59375 63.542969 L 544.300781 63.542969 "/>
<path style=" stroke:none;fill-rule:nonzero;fill:rgb(15.696716%,16.088867%,16.088867%);fill-opacity:1;" d="M 651.625 63.542969 L 640.179688 37.175781 L 628.738281 63.542969 Z M 622.183594 78.667969 L 615.628906 93.792969 L 599.144531 93.792969 L 631.964844 18.167969 L 648.398438 18.167969 L 681.222656 93.792969 L 664.785156 93.792969 L 658.230469 78.667969 "/>
<path style=" stroke:none;fill-rule:nonzero;fill:rgb(15.696716%,16.088867%,16.088867%);fill-opacity:1;" d="M 763.746094 78.667969 L 763.746094 93.792969 L 713.328125 93.792969 C 696.523438 93.792969 688.121094 85.390625 688.121094 68.585938 L 688.121094 43.378906 C 688.121094 26.570313 696.523438 18.167969 713.328125 18.167969 L 763.746094 18.167969 L 763.746094 33.292969 L 715.398438 33.292969 C 707.296875 33.292969 703.246094 37.324219 703.246094 45.394531 L 703.246094 66.519531 C 703.246094 74.617188 707.3125 78.667969 715.445313 78.667969 "/>
<g clip-path="url(#clip1)" clip-rule="nonzero">
<path style=" stroke:none;fill-rule:nonzero;fill:rgb(15.696716%,16.088867%,16.088867%);fill-opacity:1;" d="M 793.1875 78.667969 L 853.6875 78.667969 L 853.6875 93.792969 L 778.0625 93.792969 L 778.0625 18.167969 L 853.6875 18.167969 L 853.6875 33.292969 L 793.1875 33.292969 L 793.1875 48.417969 L 853.6875 48.417969 L 853.6875 63.542969 L 793.1875 63.542969 "/>
</g>
<g clip-path="url(#clip2)" clip-rule="nonzero">
<path style=" stroke:none;fill-rule:nonzero;fill:rgb(37.255859%,37.646484%,37.646484%);fill-opacity:1;" d="M 570.632813 128.199219 L 570.632813 152.246094 L 563.726563 152.246094 L 563.726563 117.726563 L 570.769531 117.726563 L 591.34375 141.777344 L 591.34375 117.726563 L 598.246094 117.726563 L 598.246094 152.246094 L 591.226563 152.246094 "/>
</g>
<g clip-path="url(#clip3)" clip-rule="nonzero">
<path style=" stroke:none;fill-rule:nonzero;fill:rgb(37.255859%,37.646484%,37.646484%);fill-opacity:1;" d="M 612.054688 145.34375 L 639.667969 145.34375 L 639.667969 152.246094 L 605.148438 152.246094 L 605.148438 117.726563 L 639.667969 117.726563 L 639.667969 124.632813 L 612.054688 124.632813 L 612.054688 131.535156 L 639.667969 131.535156 L 639.667969 138.4375 L 612.054688 138.4375 "/>
</g>
<g clip-path="url(#clip4)" clip-rule="nonzero">
<path style=" stroke:none;fill-rule:nonzero;fill:rgb(37.255859%,37.646484%,37.646484%);fill-opacity:1;" d="M 660.382813 124.632813 L 646.597656 124.632813 L 646.574219 117.726563 L 681.09375 117.726563 L 681.09375 124.632813 L 667.285156 124.632813 L 667.285156 152.246094 L 660.382813 152.246094 "/>
</g>
<g clip-path="url(#clip5)" clip-rule="nonzero">
<path style=" stroke:none;fill-rule:nonzero;fill:rgb(37.255859%,37.646484%,37.646484%);fill-opacity:1;" d="M 694.785156 152.246094 L 684.453125 117.726563 L 691.65625 117.726563 L 698.398438 140.210938 L 705.117188 117.726563 L 712.320313 117.726563 L 719.0625 140.210938 L 725.78125 117.726563 L 732.984375 117.726563 L 722.652344 152.246094 L 715.449219 152.246094 L 708.730469 129.761719 L 701.988281 152.246094 "/>
</g>
<g clip-path="url(#clip6)" clip-rule="nonzero">
<path style=" stroke:none;fill-rule:nonzero;fill:rgb(37.255859%,37.646484%,37.646484%);fill-opacity:1;" d="M 758.183594 145.34375 C 762.019531 145.34375 763.9375 143.425781 763.9375 139.589844 L 763.9375 130.386719 C 763.9375 126.550781 762.019531 124.632813 758.183594 124.632813 L 747.828125 124.632813 C 744.761719 124.632813 743.226563 126.550781 743.226563 130.386719 L 743.226563 139.589844 C 743.226563 143.425781 745.144531 145.34375 748.980469 145.34375 Z M 759.335938 152.246094 L 747.828125 152.269531 L 747.828125 152.246094 C 740.160156 152.246094 736.324219 148.410156 736.324219 140.742188 L 736.324219 129.234375 C 736.324219 121.5625 740.160156 117.726563 747.828125 117.726563 L 759.335938 117.726563 C 767.007813 117.726563 770.84375 121.5625 770.84375 129.234375 L 770.84375 140.742188 C 770.84375 148.394531 767.007813 152.230469 759.335938 152.246094 "/>
</g>
<g clip-path="url(#clip7)" clip-rule="nonzero">
<path style=" stroke:none;fill-rule:nonzero;fill:rgb(37.255859%,37.646484%,37.646484%);fill-opacity:1;" d="M 799.609375 131.535156 C 803.441406 131.535156 805.363281 130.386719 805.363281 128.082031 C 805.363281 125.78125 803.441406 124.632813 799.609375 124.632813 L 784.648438 124.632813 L 784.648438 131.535156 Z M 788.011719 138.4375 L 784.648438 138.4375 L 784.648438 152.246094 L 777.746094 152.246094 L 777.746094 117.726563 L 800.757813 117.726563 C 808.429688 117.726563 812.265625 121.179688 812.265625 128.082031 C 812.265625 134.988281 808.429688 138.4375 800.757813 138.4375 L 798.617188 138.4375 L 814.820313 152.246094 L 804.210938 152.246094 "/>
</g>
<g clip-path="url(#clip8)" clip-rule="nonzero">
<path style=" stroke:none;fill-rule:nonzero;fill:rgb(37.255859%,37.646484%,37.646484%);fill-opacity:1;" d="M 826.074219 136.667969 L 826.074219 152.246094 L 819.167969 152.246094 L 819.167969 117.726563 L 826.074219 117.726563 L 826.074219 133.308594 L 843.378906 117.726563 L 853.6875 117.726563 L 834.542969 134.988281 L 853.6875 152.246094 L 843.378906 152.246094 "/>
</g>
<path style=" stroke:none;fill-rule:nonzero;fill:rgb(15.696716%,16.088867%,16.088867%);fill-opacity:1;" d="M 82.550781 43.574219 L 52.207031 43.574219 C 50.839844 43.574219 49.757813 44.09375 48.964844 45.132813 C 48.167969 46.171875 47.773438 47.386719 47.773438 48.777344 C 47.773438 50.144531 48.15625 51.304688 48.917969 52.265625 C 49.679688 53.226563 50.777344 53.703125 52.207031 53.703125 L 70.085938 53.703125 C 74.910156 53.703125 78.722656 55.511719 81.523438 59.121094 C 84.042969 62.355469 85.304688 66.355469 85.304688 71.117188 C 85.304688 75.847656 84.042969 79.84375 81.523438 83.113281 C 78.722656 86.722656 74.910156 88.527344 70.085938 88.527344 L 37.550781 88.527344 L 37.550781 76.390625 L 68.03125 76.390625 C 69.339844 76.390625 70.367188 75.855469 71.113281 74.78125 C 71.859375 73.707031 72.234375 72.46875 72.234375 71.070313 C 72.234375 69.667969 71.875 68.480469 71.160156 67.5 C 70.441406 66.519531 69.402344 66.027344 68.03125 66.027344 L 50.105469 66.027344 C 45.253906 66.027344 41.410156 64.242188 38.578125 60.667969 C 36.027344 57.464844 34.75 53.503906 34.75 48.78125 C 34.75 44.117188 36.027344 40.171875 38.578125 36.941406 C 41.441406 33.335938 45.28125 31.53125 50.105469 31.53125 L 82.550781 31.53125 "/>
<path style=" stroke:none;fill-rule:nonzero;fill:rgb(15.696716%,16.088867%,16.088867%);fill-opacity:1;" d="M 111.933594 30.789063 L 109.300781 32.160156 C 108.902344 32.367188 108.757813 32.859375 108.972656 33.253906 C 114.417969 43.164063 116.941406 54.898438 115.371094 67.289063 C 112.195313 92.300781 92.359375 112.164063 67.351563 115.363281 C 30.507813 120.082031 -0.570313 88.601563 4.835938 51.652344 C 8.34375 27.671875 27.226563 8.632813 51.175781 4.914063 C 60.066406 3.53125 68.640625 4.277344 76.488281 6.703125 C 76.5 6.710938 76.507813 6.722656 76.507813 6.738281 C 76.445313 7.097656 76.410156 7.464844 76.410156 7.84375 C 76.410156 12.222656 80.589844 15.621094 85.175781 14.265625 C 87.273438 13.648438 88.9375 11.984375 89.554688 9.890625 C 90.910156 5.304688 87.511719 1.121094 83.132813 1.121094 C 81.363281 1.121094 79.761719 1.808594 78.5625 2.921875 C 78.554688 2.929688 78.542969 2.929688 78.535156 2.929688 C 70.011719 0.160156 60.660156 -0.761719 50.953125 0.675781 C 24.976563 4.527344 4.421875 25.105469 0.648438 51.09375 C -5.175781 91.230469 29.019531 125.34375 69.175781 119.375 C 95.027344 115.535156 115.496094 95.078125 119.363281 69.226563 C 121.449219 55.28125 118.691406 42.054688 112.535156 30.96875 C 112.414063 30.757813 112.148438 30.679688 111.933594 30.789063 "/>
</g>
</svg>
